<svg width="3007" height="512" viewBox="0 0 3007 512" fill="none" xmlns="http://www.w3.org/2000/svg">
<g clip-path="url(#clip0_499_80286)">
<path d="M1099.65 158.604C1153.27 158.604 1197.06 202.387 1197.06 256C1197.06 309.613 1153.27 353.396 1099.65 353.396C1046.03 353.396 1002.24 309.613 1002.24 256C1002.24 202.387 1045.58 158.604 1099.65 158.604ZM1099.65 111.693C1020.11 111.693 955.322 176.475 955.322 256C955.322 335.525 1020.11 400.307 1099.65 400.307C1179.18 400.307 1243.97 335.525 1243.97 256C1243.97 176.028 1179.18 111.693 1099.65 111.693Z" fill="black"/>
<path d="M2497.78 158.604C2551.4 158.604 2595.19 202.387 2595.19 256C2595.19 309.613 2551.4 353.396 2497.78 353.396C2444.16 353.396 2400.37 309.613 2400.37 256C2400.37 202.387 2444.16 158.604 2497.78 158.604ZM2497.78 111.693C2418.24 111.693 2353.45 176.475 2353.45 256C2353.45 335.525 2418.24 400.307 2497.78 400.307C2577.31 400.307 2642.1 335.525 2642.1 256C2642.1 176.028 2577.76 111.693 2497.78 111.693Z" fill="black"/>
<path d="M2280.17 289.508C2266.32 327.037 2230.57 353.396 2188.57 353.396C2134.95 353.396 2091.16 309.613 2091.16 256C2091.16 202.387 2134.95 158.604 2188.57 158.604C2230.57 158.604 2266.32 185.41 2280.17 222.492H2328.88C2314.13 159.051 2256.94 111.693 2188.57 111.693C2109.04 111.693 2044.25 176.475 2044.25 256C2044.25 335.525 2109.04 400.307 2188.57 400.307C2256.94 400.307 2314.13 352.949 2328.88 289.508H2280.17Z" fill="black"/>
<path d="M1875.34 163.072C1927.62 163.072 1970.07 206.855 1968.29 259.574C1966.5 310.059 1923.6 348.928 1873.11 348.928H1821.72V163.072H1875.34ZM1875.34 116.161H1774.81V395.84H1875.34C1952.65 395.84 2015.2 333.292 2015.2 256C2015.2 178.709 1952.65 116.161 1875.34 116.161Z" fill="black"/>
<path d="M2723.43 116.607H2676.51V395.393H2723.43V116.607Z" fill="black"/>
<path d="M705.098 396.733L758.27 191.665L811.443 396.733H875.786L948.62 115.267H900.362L843.615 333.738L786.867 115.267H729.673L672.926 333.738L616.178 115.267H567.921L640.754 396.733H705.098Z" fill="black"/>
<path d="M2817.26 197.026L2959.35 395.393H2964.72H3006.27V116.607H2959.35V314.974L2817.26 116.161H2813.69L2813.24 116.607H2770.34V395.393H2817.26V197.026Z" fill="black"/>
<path d="M1591.61 116.607H1544.69V395.393H1740.4V348.482H1591.61V116.607Z" fill="black"/>
<path d="M1454.43 280.572C1483.03 266.276 1502.69 237.236 1502.69 203.281C1502.69 155.477 1463.81 117.054 1416.45 117.054H1327.98H1279.72V289.955V395.84H1327.98V289.508H1354.79C1411.98 291.295 1457.56 337.759 1457.56 395.393H1505.82C1506.26 349.822 1486.16 308.719 1454.43 280.572ZM1327.98 241.257V164.859H1416.45C1437.45 164.859 1454.43 181.836 1454.43 202.834C1454.43 223.833 1437.45 241.257 1416.45 241.257H1327.98Z" fill="black"/>
<path d="M491.513 156.37C478.555 125.99 460.235 98.7365 436.553 75.0576C412.871 51.3787 386.061 33.0611 355.676 20.1047C323.952 6.70157 290.439 0 256.033 0C221.181 0 187.668 6.70157 156.39 20.1047C126.006 33.0611 98.7494 51.3787 75.0674 75.0576C51.3854 98.7365 33.0654 125.99 20.1073 156.37C6.70245 187.644 0 221.152 0 256C0 290.401 6.70245 323.909 20.1073 355.63C33.0654 386.01 51.3854 413.264 75.0674 436.942C98.7494 460.621 126.006 478.939 156.39 491.448C188.115 504.852 221.628 511.553 256.033 511.553C290.439 511.553 323.952 504.852 355.676 491.448C386.061 478.492 413.318 460.174 436.999 436.496C460.681 412.817 479.001 385.564 491.96 355.183C505.364 323.462 512.067 289.955 512.067 255.553C512.067 221.152 504.918 187.644 491.513 156.37ZM171.136 231.874C181.413 190.771 218.947 160.838 263.183 160.838H441.021C452.639 182.729 459.788 206.855 462.469 231.874H171.136ZM462.469 280.126C459.788 305.145 452.192 329.271 441.021 351.162H263.183C218.947 351.162 181.86 320.782 171.136 280.126H462.469ZM109.026 109.012C148.347 69.6963 200.627 48.2513 256.033 48.2513C311.44 48.2513 363.719 69.6963 403.04 109.012C404.381 110.353 405.275 111.246 406.615 112.586H263.183C224.755 112.586 189.009 127.33 161.752 154.583C140.305 176.028 126.453 202.834 121.985 231.874H49.5981C54.9601 185.41 75.5142 142.52 109.026 109.012ZM256.033 463.749C200.627 463.749 148.347 442.304 109.026 402.988C75.5142 369.48 54.9601 326.143 49.5981 280.126H121.985C126.9 309.166 140.751 335.972 161.752 357.417C189.009 384.67 224.755 399.414 263.183 399.414H406.615C405.275 400.754 404.381 401.647 403.04 402.988C363.719 442.304 311.44 463.749 256.033 463.749Z" fill="black"/>
</g>
<defs>
<clipPath id="clip0_499_80286">
<rect width="3006.27" height="512" fill="white"/>
</clipPath>
</defs>
</svg>
