<svg width="3007" height="512" viewBox="0 0 3007 512" fill="none" xmlns="http://www.w3.org/2000/svg">
<g clip-path="url(#clip0_499_80297)">
<path d="M1099.83 158.604C1153.46 158.604 1197.26 202.387 1197.26 256C1197.26 309.613 1153.46 353.396 1099.83 353.396C1046.2 353.396 1002.41 309.613 1002.41 256C1002.41 202.387 1045.76 158.604 1099.83 158.604ZM1099.83 111.693C1020.28 111.693 955.481 176.475 955.481 256C955.481 335.525 1020.28 400.307 1099.83 400.307C1179.38 400.307 1244.18 335.525 1244.18 256C1244.18 176.028 1179.38 111.693 1099.83 111.693Z" fill="white"/>
<path d="M2498.19 158.604C2551.82 158.604 2595.62 202.387 2595.62 256C2595.62 309.613 2551.82 353.396 2498.19 353.396C2444.56 353.396 2400.77 309.613 2400.77 256C2400.77 202.387 2444.56 158.604 2498.19 158.604ZM2498.19 111.693C2418.64 111.693 2353.84 176.475 2353.84 256C2353.84 335.525 2418.64 400.307 2498.19 400.307C2577.74 400.307 2642.54 335.525 2642.54 256C2642.54 176.028 2578.19 111.693 2498.19 111.693Z" fill="white"/>
<path d="M2280.55 289.508C2266.7 327.037 2230.94 353.396 2188.94 353.396C2135.31 353.396 2091.51 309.613 2091.51 256C2091.51 202.387 2135.31 158.604 2188.94 158.604C2230.94 158.604 2266.7 185.41 2280.55 222.492H2329.26C2314.52 159.051 2257.31 111.693 2188.94 111.693C2109.39 111.693 2044.59 176.475 2044.59 256C2044.59 335.525 2109.39 400.307 2188.94 400.307C2257.31 400.307 2314.52 352.949 2329.26 289.508H2280.55Z" fill="white"/>
<path d="M1875.66 163.072C1927.94 163.072 1970.4 206.855 1968.61 259.574C1966.82 310.059 1923.92 348.928 1873.42 348.928H1822.03V163.072H1875.66ZM1875.66 116.161H1775.1V395.84H1875.66C1952.97 395.84 2015.54 333.292 2015.54 256C2015.54 178.709 1952.97 116.161 1875.66 116.161Z" fill="white"/>
<path d="M2723.88 116.607H2676.95V395.393H2723.88V116.607Z" fill="white"/>
<path d="M705.215 396.733L758.396 191.665L811.578 396.733H875.932L948.777 115.267H900.512L843.755 333.738L786.998 115.267H729.794L673.038 333.738L616.281 115.267H568.015L640.86 396.733H705.215Z" fill="white"/>
<path d="M2817.73 197.026L2959.84 395.393H2965.21H3006.77V116.607H2959.84V314.974L2817.73 116.161H2814.15L2813.71 116.607H2770.8V395.393H2817.73V197.026Z" fill="white"/>
<path d="M1591.87 116.607H1544.95V395.393H1740.69V348.482H1591.87V116.607Z" fill="white"/>
<path d="M1454.67 280.572C1483.27 266.276 1502.94 237.236 1502.94 203.281C1502.94 155.477 1464.06 117.054 1416.69 117.054H1328.2H1279.93V289.955V395.84H1328.2V289.508H1355.01C1412.22 291.295 1457.8 337.759 1457.8 395.393H1506.07C1506.51 349.822 1486.4 308.719 1454.67 280.572ZM1328.2 241.257V164.859H1416.69C1437.69 164.859 1454.67 181.836 1454.67 202.834C1454.67 223.833 1437.69 241.257 1416.69 241.257H1328.2Z" fill="white"/>
<path d="M491.594 156.37C478.634 125.99 460.311 98.7365 436.625 75.0576C412.939 51.3787 386.125 33.0611 355.735 20.1047C324.005 6.70157 290.487 0 256.076 0C221.217 0 187.7 6.70157 156.416 20.1047C126.027 33.0611 98.7657 51.3787 75.0798 75.0576C51.3939 98.7365 33.0709 125.99 20.1107 156.37C6.70356 187.644 0 221.152 0 256C0 290.401 6.70356 323.909 20.1107 355.63C33.0709 386.01 51.3939 413.264 75.0798 436.942C98.7657 460.621 126.027 478.939 156.416 491.448C188.147 504.852 221.664 511.553 256.076 511.553C290.487 511.553 324.005 504.852 355.735 491.448C386.125 478.492 413.386 460.174 437.072 436.496C460.758 412.817 479.081 385.564 492.041 355.183C505.448 323.462 512.152 289.955 512.152 255.553C512.152 221.152 505.001 187.644 491.594 156.37ZM171.164 231.874C181.443 190.771 218.983 160.838 263.226 160.838H441.094C452.714 182.729 459.864 206.855 462.545 231.874H171.164ZM462.545 280.126C459.864 305.145 452.267 329.271 441.094 351.162H263.226C218.983 351.162 181.89 320.782 171.164 280.126H462.545ZM109.045 109.012C148.372 69.6963 200.66 48.2513 256.076 48.2513C311.492 48.2513 363.78 69.6963 403.107 109.012C404.448 110.353 405.342 111.246 406.683 112.586H263.226C224.793 112.586 189.04 127.33 161.779 154.583C140.328 176.028 126.474 202.834 122.005 231.874H49.6063C54.9692 185.41 75.5267 142.52 109.045 109.012ZM256.076 463.749C200.66 463.749 148.372 442.304 109.045 402.988C75.5267 369.48 54.9692 326.143 49.6063 280.126H122.005C126.921 309.166 140.775 335.972 161.779 357.417C189.04 384.67 224.793 399.414 263.226 399.414H406.683C405.342 400.754 404.448 401.647 403.107 402.988C363.78 442.304 311.492 463.749 256.076 463.749Z" fill="white"/>
</g>
<defs>
<clipPath id="clip0_499_80297">
<rect width="3006.77" height="512" fill="white"/>
</clipPath>
</defs>
</svg>
